<?xml version="1.0"?>
<svg version="1.1" xmlns="http://www.w3.org/2000/svg" xmlns:xlink="http://www.w3.org/1999/xlink" width="400" height="400">
    <desc iVinci="yes" version="4.6" gridStep="20" showGrid="no" snapToGrid="no" codePlatform="0"/>
    <g id="Layer1" name="Layer 1" opacity="1">
        <g id="Shape1">
            <desc shapeID="1" type="0" basicInfo-basicType="2" basicInfo-roundedRectRadius="12" basicInfo-polygonSides="6" basicInfo-starPoints="5" bounding="rect(-173.297,-169.699,346.593,339.397)" text="" font-familyName="Helvetica" font-pixelSize="20" font-bold="0" font-underline="0" font-alignment="1" strokeStyle="0" markerStart="0" markerEnd="0" shadowEnabled="0" shadowOffsetX="0" shadowOffsetY="2" shadowBlur="4" shadowOpacity="160" blurEnabled="0" blurRadius="4" transform="matrix(1,0,0,1,200.28,200.28)" pers-center="0,0" pers-size="0,0" pers-start="0,0" pers-end="0,0" locked="0" mesh="" flag=""/>
            <path id="shapePath1" d="M26.9839,42.5818 C26.9839,35.9543 32.3565,30.5818 38.9839,30.5818 L361.577,30.5818 C368.204,30.5818 373.577,35.9543 373.577,42.5818 L373.577,357.979 C373.577,364.607 368.204,369.979 361.577,369.979 L38.9839,369.979 C32.3565,369.979 26.9839,364.607 26.9839,357.979 L26.9839,42.5818 Z" style="stroke:#ffffff;stroke-opacity:1;stroke-width:14;stroke-linejoin:miter;stroke-miterlimit:2;stroke-linecap:round;fill-rule:evenodd;fill:url(#linearGradientFill1);fill-opacity:1;"/><defs><linearGradient id="linearGradientFill1" gradientUnits="userSpaceOnUse" x1="8.99463" y1="15.5907" x2="385.57" y2="377.775"><stop offset="0" stop-color="#d4f1ff" stop-opacity="1"/><stop offset="1" stop-color="#7face6" stop-opacity="1"/></linearGradient></defs>
        </g>
    </g>
    <g id="Layer2" name="Layer 4" opacity="1">
        <g id="Shape2">
            <desc shapeID="2" type="0" basicInfo-basicType="0" basicInfo-roundedRectRadius="12" basicInfo-polygonSides="6" basicInfo-starPoints="5" bounding="rect(-171.738,-13.855,343.475,27.71)" text="" font-familyName="Helvetica" font-pixelSize="20" font-bold="0" font-underline="0" font-alignment="1" strokeStyle="0" markerStart="0" markerEnd="0" shadowEnabled="0" shadowOffsetX="0" shadowOffsetY="2" shadowBlur="4" shadowOpacity="160" blurEnabled="0" blurRadius="4" transform="matrix(0.986033,0,0,1,199.407,237.24)" pers-center="0,0" pers-size="0,0" pers-start="0,0" pers-end="0,0" locked="0" mesh="" flag=""/>
            <path id="shapePath2" d="M30.0673,251.095 C78.6818,233.761 140.488,223.385 207.768,223.385 C267.555,223.385 323.019,231.579 368.746,245.568 " style="stroke:#000000;stroke-opacity:1;stroke-width:10;stroke-linejoin:miter;stroke-miterlimit:2;stroke-linecap:round;fill:none;"/>
        </g>
        <g id="Shape3">
            <desc shapeID="3" type="0" basicInfo-basicType="0" basicInfo-roundedRectRadius="12" basicInfo-polygonSides="6" basicInfo-starPoints="5" bounding="rect(-5.83809,-35.0285,11.6762,70.057)" text="" font-familyName="Helvetica" font-pixelSize="20" font-bold="0" font-underline="0" font-alignment="1" strokeStyle="0" markerStart="0" markerEnd="0" shadowEnabled="0" shadowOffsetX="0" shadowOffsetY="2" shadowBlur="4" shadowOpacity="160" blurEnabled="0" blurRadius="4" transform="matrix(1,0,0,1,90.1857,195.655)" pers-center="0,0" pers-size="0,0" pers-start="0,0" pers-end="0,0" locked="0" mesh="" flag=""/>
            <path id="shapePath3" d="M96.0238,230.683 L84.3476,160.626 " style="stroke:#000000;stroke-opacity:1;stroke-width:10;stroke-linejoin:miter;stroke-miterlimit:2;stroke-linecap:round;fill:none;"/>
        </g>
        <g id="Shape4">
            <desc shapeID="4" type="0" basicInfo-basicType="0" basicInfo-roundedRectRadius="12" basicInfo-polygonSides="6" basicInfo-starPoints="5" bounding="rect(-6.56794,-31.3795,13.136,62.759)" text="" font-familyName="Helvetica" font-pixelSize="20" font-bold="0" font-underline="0" font-alignment="1" strokeStyle="0" markerStart="0" markerEnd="0" shadowEnabled="0" shadowOffsetX="0" shadowOffsetY="2" shadowBlur="4" shadowOpacity="160" blurEnabled="0" blurRadius="4" transform="matrix(1,0,0,1,296.708,192.005)" pers-center="0,0" pers-size="0,0" pers-start="0,0" pers-end="0,0" locked="0" mesh="" flag=""/>
            <path id="shapePath4" d="M290.14,223.385 L303.276,160.626 " style="stroke:#000000;stroke-opacity:1;stroke-width:10;stroke-linejoin:miter;stroke-miterlimit:2;stroke-linecap:round;fill:none;"/>
        </g>
        <g id="Shape5">
            <desc shapeID="5" type="0" basicInfo-basicType="0" basicInfo-roundedRectRadius="12" basicInfo-polygonSides="6" basicInfo-starPoints="5" bounding="rect(-5.83849,-35.028,11.6771,70.056)" text="" font-familyName="Helvetica" font-pixelSize="20" font-bold="0" font-underline="0" font-alignment="1" strokeStyle="0" markerStart="0" markerEnd="0" shadowEnabled="0" shadowOffsetX="0" shadowOffsetY="2" shadowBlur="4" shadowOpacity="160" blurEnabled="0" blurRadius="4" transform="matrix(0.577113,0,0,0.689234,137.204,199.242)" pers-center="0,0" pers-size="0,0" pers-start="0,0" pers-end="0,0" locked="0" mesh="" flag=""/>
            <path id="shapePath5" d="M140.574,223.385 L133.835,175.1 " style="stroke:#000000;stroke-opacity:1;stroke-width:10;stroke-linejoin:miter;stroke-miterlimit:2;stroke-linecap:round;fill:none;"/>
        </g>
        <g id="Shape6">
            <desc shapeID="6" type="0" basicInfo-basicType="0" basicInfo-roundedRectRadius="12" basicInfo-polygonSides="6" basicInfo-starPoints="5" bounding="rect(-6.56804,-31.3792,13.1361,62.7585)" text="" font-familyName="Helvetica" font-pixelSize="20" font-bold="0" font-underline="0" font-alignment="1" strokeStyle="0" markerStart="0" markerEnd="0" shadowEnabled="0" shadowOffsetX="0" shadowOffsetY="2" shadowBlur="4" shadowOpacity="160" blurEnabled="0" blurRadius="4" transform="matrix(0.577113,0,0,0.750863,256.392,198.661)" pers-center="0,0" pers-size="0,0" pers-start="0,0" pers-end="0,0" locked="0" mesh="" flag=""/>
            <path id="shapePath6" d="M252.601,222.223 L260.182,175.1 " style="stroke:#000000;stroke-opacity:1;stroke-width:10;stroke-linejoin:miter;stroke-miterlimit:2;stroke-linecap:round;fill:none;"/>
        </g>
    </g>
    <g id="Layer3" name="Layer 5" opacity="1">
        <g id="Shape7">
            <desc shapeID="7" type="2" basicInfo-basicType="0" basicInfo-roundedRectRadius="12" basicInfo-polygonSides="6" basicInfo-starPoints="5" bounding="rect(-45.653,-64.577,91.3062,129.154)" text="3" font-familyName="Raanana" font-pixelSize="180" font-bold="1" font-underline="0" font-alignment="1" strokeStyle="0" markerStart="0" markerEnd="0" shadowEnabled="0" shadowOffsetX="0" shadowOffsetY="2" shadowBlur="4" shadowOpacity="160" blurEnabled="0" blurRadius="4" transform="matrix(1,0,0,1,203.333,134.096)" pers-center="0,0" pers-size="0,0" pers-start="0,0" pers-end="0,0" locked="0" mesh="" flag=""/>
            <path id="shapePath7" d="M186.427,69.8421 C190.235,67.8499 196.388,66.8538 204.884,66.8538 C222.11,66.8538 230.724,74.2073 230.724,88.9144 C230.724,93.1917 229.698,96.6927 227.647,99.4173 C225.597,102.142 221.437,105.614 215.167,109.832 C229.347,109.832 236.993,117.742 238.106,133.563 C238.106,144.461 233.888,153.953 225.45,162.039 C215.606,171.121 204.708,175.662 192.755,175.662 C183.907,175.662 176.524,172.908 170.606,167.401 L185.724,147.45 C191.407,152.606 196.563,155.184 201.192,155.184 C207.286,155.184 211.856,153.792 214.903,151.009 C217.95,148.226 219.474,144.666 219.474,140.33 C219.474,131.6 214.669,127.235 205.06,127.235 C199.728,127.235 194.103,128.143 188.185,129.959 L191.612,112.557 C203.917,109.334 210.069,104.412 210.069,97.7913 C210.069,91.2874 203.683,88.0354 190.909,88.0354 C188.741,88.0354 186.427,88.4163 183.966,89.178 C181.563,90.0569 179.63,90.8772 178.165,91.639 L186.427,69.8421 Z" style="stroke:none;fill-rule:nonzero;fill:#ffffff;fill-opacity:1;"/>
        </g>
        <g id="Shape8">
            <desc shapeID="8" type="2" basicInfo-basicType="0" basicInfo-roundedRectRadius="12" basicInfo-polygonSides="6" basicInfo-starPoints="5" bounding="rect(-45.653,-64.577,91.3062,129.154)" text="3" font-familyName="Raanana" font-pixelSize="180" font-bold="1" font-underline="0" font-alignment="1" strokeStyle="0" markerStart="0" markerEnd="0" shadowEnabled="0" shadowOffsetX="0" shadowOffsetY="2" shadowBlur="4" shadowOpacity="160" blurEnabled="0" blurRadius="4" transform="matrix(1,0,0,1,199.195,129.096)" pers-center="0,0" pers-size="0,0" pers-start="0,0" pers-end="0,0" locked="0" mesh="" flag=""/>
            <path id="shapePath8" d="M182.289,64.8421 C186.097,62.8499 192.25,61.8538 200.746,61.8538 C217.972,61.8538 226.586,69.2073 226.586,83.9144 C226.586,88.1917 225.56,91.6927 223.509,94.4173 C221.459,97.1419 217.299,100.614 211.029,104.832 C225.209,104.832 232.855,112.742 233.968,128.563 C233.968,139.461 229.75,148.953 221.312,157.039 C211.468,166.121 200.57,170.662 188.617,170.662 C179.769,170.662 172.386,167.908 166.468,162.401 L181.586,142.45 C187.269,147.606 192.425,150.184 197.054,150.184 C203.148,150.184 207.718,148.792 210.765,146.009 C213.812,143.226 215.336,139.666 215.336,135.33 C215.336,126.6 210.531,122.235 200.922,122.235 C195.59,122.235 189.965,123.143 184.047,124.959 L187.474,107.557 C199.779,104.334 205.931,99.4124 205.931,92.7913 C205.931,86.2874 199.545,83.0354 186.771,83.0354 C184.603,83.0354 182.289,83.4163 179.828,84.178 C177.425,85.0569 175.492,85.8772 174.027,86.639 L182.289,64.8421 Z" style="stroke:none;fill-rule:nonzero;fill:#100f95;fill-opacity:1;"/>
        </g>
    </g>
    <g id="Layer4" name="Layer 6" opacity="1">
        <g id="Shape9">
            <desc shapeID="9" type="0" basicInfo-basicType="0" basicInfo-roundedRectRadius="12" basicInfo-polygonSides="6" basicInfo-starPoints="5" bounding="rect(-33.2835,-78.556,66.5671,157.11)" text="" font-familyName="Raanana" font-pixelSize="140" font-bold="1" font-underline="0" font-alignment="1" strokeStyle="0" markerStart="0" markerEnd="0" shadowEnabled="0" shadowOffsetX="0" shadowOffsetY="2" shadowBlur="4" shadowOpacity="160" blurEnabled="0" blurRadius="4" transform="matrix(0.868132,0,0,1.0745,232.777,278.558)" pers-center="0,0" pers-size="0,0" pers-start="0,0" pers-end="0,0" locked="0" mesh="" flag=""/>
            <path id="shapePath9" d="M203.883,194.15 C223.146,222.286 203.883,194.15 203.883,194.151 C223.146,222.286 261.672,278.558 261.672,278.558 L244.481,362.965 " style="stroke:#ffffff;stroke-opacity:1;stroke-width:4;stroke-linejoin:miter;stroke-miterlimit:2;stroke-linecap:round;fill:none;"/>
        </g>
        <g id="Shape10">
            <desc shapeID="10" type="0" basicInfo-basicType="0" basicInfo-roundedRectRadius="12" basicInfo-polygonSides="6" basicInfo-starPoints="5" bounding="rect(-57.5,-86.0745,115,172.149)" text="" font-familyName="Raanana" font-pixelSize="140" font-bold="1" font-underline="0" font-alignment="1" strokeStyle="0" markerStart="0" markerEnd="0" shadowEnabled="0" shadowOffsetX="0" shadowOffsetY="2" shadowBlur="4" shadowOpacity="160" blurEnabled="0" blurRadius="4" transform="matrix(1,0,0,1,199.068,279.626)" pers-center="0,0" pers-size="0,0" pers-start="0,0" pers-end="0,0" locked="0" mesh="" flag=""/>
            <path id="shapePath10" d="M163.568,365.701 C163.568,365.701 141.568,279.626 141.568,279.626 C141.568,279.626 199.068,193.552 199.068,193.552 C199.068,193.552 256.568,279.626 256.568,279.626 C256.568,279.626 237.568,365.701 237.568,365.701 C237.568,365.701 163.568,365.701 163.568,365.701 Z" style="stroke:#181f57;stroke-opacity:1;stroke-width:6.5;stroke-linejoin:miter;stroke-miterlimit:2;stroke-linecap:round;fill-rule:evenodd;fill:url(#linearGradientFill10);fill-opacity:1;"/><defs><linearGradient id="linearGradientFill10" gradientUnits="userSpaceOnUse" x1="144.019" y1="229.7" x2="265.636" y2="323.128"><stop offset="0" stop-color="#8197ff" stop-opacity="1"/><stop offset="1" stop-color="#5b68ff" stop-opacity="1"/></linearGradient></defs>
        </g>
        <g id="Shape11">
            <desc shapeID="11" type="0" basicInfo-basicType="0" basicInfo-roundedRectRadius="12" basicInfo-polygonSides="6" basicInfo-starPoints="5" bounding="rect(0,-52.6696,3.05176e-05,105.339)" text="" font-familyName="Raanana" font-pixelSize="140" font-bold="1" font-underline="0" font-alignment="1" strokeStyle="0" markerStart="0" markerEnd="0" shadowEnabled="0" shadowOffsetX="0" shadowOffsetY="2" shadowBlur="4" shadowOpacity="160" blurEnabled="0" blurRadius="4" transform="matrix(0.858005,-0.00341643,0.00264835,0.66511,196.025,292.068)" pers-center="0,0" pers-size="0,0" pers-start="0,0" pers-end="0,0" locked="0" mesh="" flag=""/>
            <path id="shapePath11" d="M196.165,327.099 L195.886,257.037 " style="stroke:#000001;stroke-opacity:1;stroke-width:6;stroke-linejoin:miter;stroke-miterlimit:2;stroke-linecap:round;fill-rule:evenodd;fill:#080853;fill-opacity:1;"/>
        </g>
        <g id="Shape12">
            <desc shapeID="12" type="0" basicInfo-basicType="0" basicInfo-roundedRectRadius="12" basicInfo-polygonSides="6" basicInfo-starPoints="5" bounding="rect(-7.62939e-06,-52.6696,4.57764e-05,105.339)" text="" font-familyName="Raanana" font-pixelSize="140" font-bold="1" font-underline="0" font-alignment="1" strokeStyle="0" markerStart="0" markerEnd="0" shadowEnabled="0" shadowOffsetX="0" shadowOffsetY="2" shadowBlur="4" shadowOpacity="160" blurEnabled="0" blurRadius="4" transform="matrix(0.858005,-0.00341643,0.00264835,0.66511,201.328,292.052)" pers-center="0,0" pers-size="0,0" pers-start="0,0" pers-end="0,0" locked="0" mesh="" flag=""/>
            <path id="shapePath12" d="M201.468,327.083 L201.189,257.021 " style="stroke:#ffffff;stroke-opacity:1;stroke-width:5.5;stroke-linejoin:miter;stroke-miterlimit:2;stroke-linecap:round;fill-rule:evenodd;fill:#fff1f2;fill-opacity:1;"/>
        </g>
    </g>
    <g id="Layer5" name="Layer 3" opacity="1">
        <g id="Shape13">
            <desc shapeID="13" type="0" basicInfo-basicType="2" basicInfo-roundedRectRadius="12" basicInfo-polygonSides="6" basicInfo-starPoints="5" bounding="rect(-173.297,-169.699,346.593,339.397)" text="" font-familyName="Helvetica" font-pixelSize="20" font-bold="0" font-underline="0" font-alignment="1" strokeStyle="0" markerStart="0" markerEnd="0" shadowEnabled="0" shadowOffsetX="0" shadowOffsetY="2" shadowBlur="4" shadowOpacity="160" blurEnabled="0" blurRadius="4" transform="matrix(1,0,0,1,200.28,200.28)" pers-center="0,0" pers-size="0,0" pers-start="0,0" pers-end="0,0" locked="0" mesh="" flag=""/>
            <path id="shapePath13" d="M26.9839,42.5818 C26.9839,35.9543 32.3565,30.5818 38.9839,30.5818 L361.577,30.5818 C368.204,30.5818 373.577,35.9543 373.577,42.5818 L373.577,357.979 C373.577,364.607 368.204,369.979 361.577,369.979 L38.9839,369.979 C32.3565,369.979 26.9839,364.607 26.9839,357.979 L26.9839,42.5818 Z" style="stroke:#ffffff;stroke-opacity:1;stroke-width:14;stroke-linejoin:miter;stroke-miterlimit:2;stroke-linecap:round;fill:none;"/>
        </g>
    </g>
</svg>
